<?xml version="1.0" encoding="UTF-8" standalone="no"?><svg xmlns="http://www.w3.org/2000/svg" xmlns:xlink="http://www.w3.org/1999/xlink" contentScriptType="application/ecmascript" contentStyleType="text/css" height="663px" preserveAspectRatio="none" style="width:1035px;height:663px;" version="1.1" viewBox="0 0 1035 663" width="1035px" zoomAndPan="magnify"><defs><filter height="300%" id="f1jx57jb7lmijo" width="300%" x="-1" y="-1"><feGaussianBlur result="blurOut" stdDeviation="2.0"/><feColorMatrix in="blurOut" result="blurOut2" type="matrix" values="0 0 0 0 0 0 0 0 0 0 0 0 0 0 0 0 0 0 .4 0"/><feOffset dx="4.0" dy="4.0" in="blurOut2" result="blurOut3"/><feBlend in="SourceGraphic" in2="blurOut3" mode="normal"/></filter></defs><g><path d="M6,8 L6,33.1328 L203,33.1328 L203,18 L193,8 L6,8 " fill="#FBFB77" filter="url(#f1jx57jb7lmijo)" style="stroke: #A80036; stroke-width: 1.0;"/><path d="M193,8 L193,18 L203,18 L193,8 " fill="#FBFB77" style="stroke: #A80036; stroke-width: 1.0;"/><text fill="#000000" font-family="sans-serif" font-size="13" lengthAdjust="spacingAndGlyphs" textLength="176" x="12" y="25.0669">Gyro input: stable, low, high</text><path d="M238.5,8 L238.5,33.1328 L630.5,33.1328 L630.5,18 L620.5,8 L238.5,8 " fill="#FBFB77" filter="url(#f1jx57jb7lmijo)" style="stroke: #A80036; stroke-width: 1.0;"/><path d="M620.5,8 L620.5,18 L630.5,18 L620.5,8 " fill="#FBFB77" style="stroke: #A80036; stroke-width: 1.0;"/><text fill="#000000" font-family="sans-serif" font-size="13" lengthAdjust="spacingAndGlyphs" textLength="371" x="244.5" y="25.0669">Accelerometer input: stable-0G, stable-1G, high, very high</text><rect fill="#FEFECE" filter="url(#f1jx57jb7lmijo)" height="50" rx="12.5" ry="12.5" style="stroke: #A80036; stroke-width: 1.5;" width="73" x="741" y="602"/><line style="stroke: #A80036; stroke-width: 1.5;" x1="741" x2="814" y1="628.2969" y2="628.2969"/><text fill="#000000" font-family="sans-serif" font-size="14" lengthAdjust="spacingAndGlyphs" textLength="53" x="751" y="619.9951">Resting</text><rect fill="#FEFECE" filter="url(#f1jx57jb7lmijo)" height="50" rx="12.5" ry="12.5" style="stroke: #A80036; stroke-width: 1.5;" width="72" x="639.5" y="94"/><line style="stroke: #A80036; stroke-width: 1.5;" x1="639.5" x2="711.5" y1="120.2969" y2="120.2969"/><text fill="#000000" font-family="sans-serif" font-size="14" lengthAdjust="spacingAndGlyphs" textLength="52" x="649.5" y="111.9951">In Hand</text><rect fill="#FEFECE" filter="url(#f1jx57jb7lmijo)" height="50" rx="12.5" ry="12.5" style="stroke: #A80036; stroke-width: 1.5;" width="127" x="612" y="348"/><line style="stroke: #A80036; stroke-width: 1.5;" x1="612" x2="739" y1="374.2969" y2="374.2969"/><text fill="#000000" font-family="sans-serif" font-size="14" lengthAdjust="spacingAndGlyphs" textLength="107" x="622" y="365.9951">In stable freefall</text><rect fill="#FEFECE" filter="url(#f1jx57jb7lmijo)" height="50" rx="12.5" ry="12.5" style="stroke: #A80036; stroke-width: 1.5;" width="138" x="606.5" y="475"/><line style="stroke: #A80036; stroke-width: 1.5;" x1="606.5" x2="744.5" y1="501.2969" y2="501.2969"/><text fill="#000000" font-family="sans-serif" font-size="14" lengthAdjust="spacingAndGlyphs" textLength="118" x="616.5" y="492.9951">In rotating freefall</text><rect fill="#FEFECE" filter="url(#f1jx57jb7lmijo)" height="50" rx="12.5" ry="12.5" style="stroke: #A80036; stroke-width: 1.5;" width="75" x="809" y="221"/><line style="stroke: #A80036; stroke-width: 1.5;" x1="809" x2="884" y1="247.2969" y2="247.2969"/><text fill="#000000" font-family="sans-serif" font-size="14" lengthAdjust="spacingAndGlyphs" textLength="55" x="819" y="238.9951">In throw</text><rect fill="#FEFECE" filter="url(#f1jx57jb7lmijo)" height="50" rx="12.5" ry="12.5" style="stroke: #A80036; stroke-width: 1.5;" width="116" x="802.5" y="348"/><line style="stroke: #A80036; stroke-width: 1.5;" x1="802.5" x2="918.5" y1="374.2969" y2="374.2969"/><text fill="#000000" font-family="sans-serif" font-size="14" lengthAdjust="spacingAndGlyphs" textLength="96" x="812.5" y="365.9951">Hit something</text><rect fill="#FEFECE" filter="url(#f1jx57jb7lmijo)" height="50" rx="12.5" ry="12.5" style="stroke: #A80036; stroke-width: 1.5;" width="78" x="821.5" y="475"/><line style="stroke: #A80036; stroke-width: 1.5;" x1="821.5" x2="899.5" y1="501.2969" y2="501.2969"/><text fill="#000000" font-family="sans-serif" font-size="14" lengthAdjust="spacingAndGlyphs" textLength="58" x="831.5" y="492.9951">Survived</text><rect fill="#FEFECE" filter="url(#f1jx57jb7lmijo)" height="50" rx="12.5" ry="12.5" style="stroke: #A80036; stroke-width: 1.5;" width="157" x="866" y="602"/><line style="stroke: #A80036; stroke-width: 1.5;" x1="866" x2="1023" y1="628.2969" y2="628.2969"/><text fill="#000000" font-family="sans-serif" font-size="14" lengthAdjust="spacingAndGlyphs" textLength="137" x="876" y="619.9951">Hit something again</text><ellipse cx="675.5" cy="20.5" fill="#000000" filter="url(#f1jx57jb7lmijo)" rx="10" ry="10" style="stroke: none; stroke-width: 1.0;"/><!--MD5=[2fa55c37c49f303f90cda152475862ba]
link *start to in_hand--><path d="M675.5,30.753 C675.5,43.917 675.5,68.65 675.5,88.43 " fill="none" id="*start-&gt;in_hand" style="stroke: #A80036; stroke-width: 1.0;"/><polygon fill="#A80036" points="675.5,93.602,679.5,84.602,675.5,88.602,671.5,84.602,675.5,93.602" style="stroke: #A80036; stroke-width: 1.0;"/><!--MD5=[4732eba61f7819b3554a7914fd29c09d]
link in_hand to freefall--><path d="M672.142,144.02 C669.464,164.446 665.934,194.581 664.5,221 C663.295,243.19 663.295,248.81 664.5,271 C665.822,295.355 668.926,322.868 671.5,343.021 " fill="none" id="in_hand-&gt;freefall" style="stroke: #A80036; stroke-width: 1.0;"/><polygon fill="#A80036" points="672.142,347.98,674.952,338.5405,671.4993,343.0215,667.0184,339.5688,672.142,347.98" style="stroke: #A80036; stroke-width: 1.0;"/><text fill="#000000" font-family="sans-serif" font-size="13" lengthAdjust="spacingAndGlyphs" textLength="125" x="665.5" y="250.5669">accel == stable-0G</text><!--MD5=[277349f018aa6b69cfedd5692eda200c]
link in_hand to in_throw--><path d="M708.471,144.101 C737.331,165.198 779.23,195.826 809.285,217.796 " fill="none" id="in_hand-&gt;in_throw" style="stroke: #A80036; stroke-width: 1.0;"/><polygon fill="#A80036" points="813.631,220.973,808.7262,212.4323,809.5946,218.0221,804.0048,218.8905,813.631,220.973" style="stroke: #A80036; stroke-width: 1.0;"/><text fill="#000000" font-family="sans-serif" font-size="13" lengthAdjust="spacingAndGlyphs" textLength="114" x="771.5" y="187.0669">accel &gt; stable-1G</text><!--MD5=[9ba31ab8d645f4ef26c33831ae1ee070]
link in_throw to freefall--><path d="M808.733,261.888 C779.389,273.891 741.558,290.454 728.5,301 C713.968,312.736 701.297,329.315 691.991,343.5 " fill="none" id="in_throw-&gt;freefall" style="stroke: #A80036; stroke-width: 1.0;"/><polygon fill="#A80036" points="689.213,347.818,697.4472,342.4145,691.9189,343.6135,690.72,338.0851,689.213,347.818" style="stroke: #A80036; stroke-width: 1.0;"/><text fill="#000000" font-family="sans-serif" font-size="13" lengthAdjust="spacingAndGlyphs" textLength="114" x="729.5" y="314.0669">accel &lt; stable-1G</text><!--MD5=[6302de103eaa369cc213ceab47d9d501]
link freefall to freefall_rotating--><path d="M675.5,398.101 C675.5,418.593 675.5,448.076 675.5,469.884 " fill="none" id="freefall-&gt;freefall_rotating" style="stroke: #A80036; stroke-width: 1.0;"/><polygon fill="#A80036" points="675.5,474.973,679.5,465.973,675.5,469.973,671.5,465.973,675.5,474.973" style="stroke: #A80036; stroke-width: 1.0;"/><text fill="#000000" font-family="sans-serif" font-size="13" lengthAdjust="spacingAndGlyphs" textLength="85" x="676.5" y="441.0669">gyro == high</text><!--MD5=[dfc877ddec17ac1e013232769657aca4]
link in_throw to hit--><path d="M849.199,271.101 C851.494,291.593 854.797,321.076 857.239,342.884 " fill="none" id="in_throw-&gt;hit" style="stroke: #A80036; stroke-width: 1.0;"/><polygon fill="#A80036" points="857.809,347.973,860.7812,338.5833,857.2518,343.0041,852.831,339.4748,857.809,347.973" style="stroke: #A80036; stroke-width: 1.0;"/><text fill="#000000" font-family="sans-serif" font-size="13" lengthAdjust="spacingAndGlyphs" textLength="121" x="854.5" y="314.0669">accel == very high</text><!--MD5=[8a05547d3fa28cb10afa082a7107f3d2]
link hit to survived--><path d="M860.5,398.101 C860.5,418.593 860.5,448.076 860.5,469.884 " fill="none" id="hit-&gt;survived" style="stroke: #A80036; stroke-width: 1.0;"/><polygon fill="#A80036" points="860.5,474.973,864.5,465.973,860.5,469.973,856.5,465.973,860.5,474.973" style="stroke: #A80036; stroke-width: 1.0;"/><text fill="#000000" font-family="sans-serif" font-size="13" lengthAdjust="spacingAndGlyphs" textLength="79" x="861.5" y="441.0669">accel &lt; high</text><!--MD5=[78bdb4469bb0a017ae19efa27e5406f5]
link survived to resting--><path d="M821.246,515.286 C803.624,523.899 784.566,536.794 774.5,555 C767.596,567.4866 767.542,583.1812 769.558,596.637 " fill="none" id="survived-&gt;resting" style="stroke: #A80036; stroke-width: 1.0;"/><polygon fill="#A80036" points="770.459,601.8645,772.8726,592.316,769.6099,596.9371,764.9888,593.6745,770.459,601.8645" style="stroke: #A80036; stroke-width: 1.0;"/><text fill="#000000" font-family="sans-serif" font-size="13" lengthAdjust="spacingAndGlyphs" textLength="125" x="775.5" y="568.0669">accel == stable-1G</text><!--MD5=[9a05eaf38adf7d5a9acd66d96ae9e6e0]
link survived to hit_again--><path d="M882.376,525.217 C890.086,534.264 898.556,544.817 905.5,555 C914.604,568.349 923.391,584.0166 930.313,597.2329 " fill="none" id="survived-&gt;hit_again" style="stroke: #A80036; stroke-width: 1.0;"/><polygon fill="#A80036" points="932.775,601.9823,932.1828,592.1513,930.4732,597.5436,925.0809,595.8341,932.775,601.9823" style="stroke: #A80036; stroke-width: 1.0;"/><text fill="#000000" font-family="sans-serif" font-size="13" lengthAdjust="spacingAndGlyphs" textLength="90" x="916.5" y="568.0669">accel &gt;= high</text><!--MD5=[aeb8b2741729b1a55a917c07657549c3]
@startuml
note "Gyro input: stable, low, high" as N1
note "Accelerometer input: stable-0G, stable-1G, high, very high" as N2

state "Resting" as resting
state "In Hand" as in_hand
state "In stable freefall" as freefall
state "In rotating freefall" as freefall_rotating
state "In throw" as in_throw
state "Hit something" as hit
state "Survived" as survived
state "Hit something again" as hit_again

[*] - -> in_hand
in_hand - -> freefall : accel == stable-0G
in_hand - -> in_throw : accel > stable-1G
in_throw - -> freefall : accel < stable-1G
freefall - -> freefall_rotating : gyro == high
in_throw - -> hit : accel == very high
hit - -> survived : accel < high
survived - -> resting : accel == stable-1G
survived - -> hit_again : accel >= high
@enduml

PlantUML version 1.2020.03beta11(Unknown compile time)
(GPL source distribution)
Java Runtime: Java(TM) SE Runtime Environment
JVM: Java HotSpot(TM) 64-Bit Server VM
Java Version: 1.7.0_25-b15
Operating System: Linux
Default Encoding: UTF-8
Language: en
Country: US
--></g></svg>